<?xml version="1.0" encoding="UTF-8"?>
<svg xmlns="http://www.w3.org/2000/svg" xmlns:xlink="http://www.w3.org/1999/xlink" width="600pt" height="599.999999pt" viewBox="0 0 600 599.999999" version="1.2">
<defs>
<clipPath id="clip1">
  <path d="M 39.46875 62.097656 L 523.21875 62.097656 L 523.21875 505 L 39.46875 505 Z M 39.46875 62.097656 "/>
</clipPath>
<clipPath id="clip2">
  <path d="M 58.707031 76.222656 L 560.457031 76.222656 L 560.457031 537 L 58.707031 537 Z M 58.707031 76.222656 "/>
</clipPath>
<clipPath id="clip3">
  <path d="M 51.976562 69.121094 L 541.726562 69.121094 L 541.726562 518 L 51.976562 518 Z M 51.976562 69.121094 "/>
</clipPath>
<clipPath id="clip4">
  <path d="M 49 93.96875 L 563 93.96875 L 563 528 L 49 528 Z M 49 93.96875 "/>
</clipPath>
<clipPath id="clip5">
  <path d="M 37.148438 71.808594 L 543 71.808594 L 543 499.699219 L 37.148438 499.699219 Z M 37.148438 71.808594 "/>
</clipPath>
<clipPath id="clip6">
  <path d="M 44.265625 88.429688 L 550.460938 88.429688 L 550.460938 516.324219 L 44.265625 516.324219 Z M 44.265625 88.429688 "/>
</clipPath>
</defs>
<g id="surface1">
<g clip-path="url(#clip1)" clip-rule="nonzero">
<path style=" stroke:none;fill-rule:nonzero;fill:rgb(100%,100%,100%);fill-opacity:1;" d="M 493.5 316.640625 L 487.453125 316.640625 C 492.234375 300.683594 494.730469 284.144531 494.730469 267.457031 C 494.730469 249.148438 491.757812 231.453125 486.328125 214.683594 C 493.535156 207.476562 495.820312 196.257812 491.183594 186.53125 C 455.167969 110.988281 372.800781 62.175781 281.347656 62.175781 C 189.828125 62.175781 107.441406 111.03125 71.453125 186.640625 C 66.820312 196.371094 69.117188 207.585938 76.328125 214.789062 C 70.917969 231.527344 67.960938 249.183594 67.960938 267.457031 C 67.960938 284.242188 70.46875 300.746094 75.210938 316.640625 L 69.1875 316.640625 C 52.773438 316.640625 39.46875 329.949219 39.46875 346.359375 L 39.46875 445.414062 C 39.46875 461.828125 52.773438 475.128906 69.1875 475.128906 L 80.007812 475.128906 C 81.671875 493.582031 96.816406 506.730469 113.046875 504.5625 C 125.332031 503.011719 137.617188 501.457031 149.902344 499.90625 C 166.183594 497.734375 177.632812 482.816406 176.199219 466.535156 C 172.035156 419.53125 172.035156 372.246094 176.199219 325.238281 C 177.628906 308.953125 166.183594 294.039062 149.902344 291.867188 C 137.617188 290.3125 125.332031 288.761719 113.046875 287.214844 C 104.589844 286.085938 96.449219 289.136719 90.332031 294.90625 C 88.667969 285.890625 87.769531 276.722656 87.769531 267.457031 C 87.769531 251.710938 90.253906 236.472656 94.804688 221.984375 C 103.691406 221.617188 112.085938 216.515625 116.171875 207.929688 C 143.996094 149.476562 208.832031 111.703125 281.347656 111.703125 C 353.8125 111.703125 418.632812 149.445312 446.480469 207.847656 C 450.574219 216.433594 458.972656 221.570312 467.863281 221.929688 C 472.425781 236.433594 474.917969 251.691406 474.917969 267.457031 C 474.917969 276.785156 474.058594 285.96875 472.421875 294.972656 C 466.300781 289.164062 458.128906 286.078125 449.636719 287.214844 C 437.351562 288.761719 425.070312 290.316406 412.785156 291.867188 C 396.507812 294.039062 385.054688 308.953125 386.488281 325.238281 C 390.652344 372.246094 390.652344 419.53125 386.488281 466.535156 C 385.054688 482.820312 396.507812 497.734375 412.785156 499.90625 C 425.070312 501.457031 437.351562 503.011719 449.636719 504.5625 C 465.871094 506.730469 481.019531 493.582031 482.679688 475.128906 L 493.5 475.128906 C 509.910156 475.128906 523.21875 461.828125 523.21875 445.417969 L 523.21875 346.359375 C 523.21875 329.949219 509.910156 316.640625 493.5 316.640625 "/>
</g>
<g clip-path="url(#clip2)" clip-rule="nonzero">
<path style=" stroke:none;fill-rule:nonzero;fill:rgb(78.42865%,78.42865%,78.42865%);fill-opacity:1;" d="M 529.632812 340.636719 L 523.363281 340.636719 C 528.320312 324.0625 530.90625 306.878906 530.90625 289.542969 C 530.90625 270.523438 527.828125 252.144531 522.195312 234.726562 C 529.667969 227.238281 532.039062 215.582031 527.230469 205.480469 C 489.875 127.007812 404.441406 76.300781 309.585938 76.300781 C 214.660156 76.300781 129.210938 127.050781 91.882812 205.59375 C 87.078125 215.699219 89.457031 227.351562 96.9375 234.832031 C 91.328125 252.222656 88.261719 270.566406 88.261719 289.542969 C 88.261719 306.980469 90.859375 324.125 95.78125 340.636719 L 89.53125 340.636719 C 72.507812 340.636719 58.707031 354.460938 58.707031 371.507812 L 58.707031 474.402344 C 58.707031 491.453125 72.507812 505.273438 89.53125 505.273438 L 100.753906 505.273438 C 102.480469 524.441406 118.1875 538.097656 135.023438 535.84375 C 147.769531 534.238281 160.507812 532.621094 173.25 531.011719 C 190.136719 528.753906 202.011719 513.257812 200.527344 496.34375 C 196.203125 447.515625 196.203125 398.398438 200.527344 349.570312 C 202.007812 332.648438 190.136719 317.15625 173.25 314.902344 C 160.507812 313.289062 147.769531 311.675781 135.023438 310.070312 C 126.25 308.894531 117.804688 312.066406 111.460938 318.058594 C 109.738281 308.691406 108.808594 299.167969 108.808594 289.542969 C 108.808594 273.1875 111.382812 257.359375 116.105469 242.308594 C 125.320312 241.929688 134.023438 236.628906 138.265625 227.710938 C 167.125 166.988281 234.371094 127.75 309.585938 127.75 C 384.75 127.75 451.980469 166.953125 480.863281 227.625 C 485.109375 236.542969 493.820312 241.878906 503.042969 242.25 C 507.777344 257.316406 510.359375 273.167969 510.359375 289.542969 C 510.359375 299.234375 509.46875 308.773438 507.769531 318.128906 C 501.417969 312.09375 492.945312 308.886719 484.140625 310.070312 C 471.394531 311.675781 458.65625 313.292969 445.914062 314.902344 C 429.03125 317.15625 417.15625 332.648438 418.636719 349.570312 C 422.960938 398.398438 422.960938 447.515625 418.636719 496.34375 C 417.15625 513.261719 429.03125 528.753906 445.914062 531.011719 C 458.65625 532.621094 471.394531 534.238281 484.140625 535.84375 C 500.976562 538.097656 516.6875 524.441406 518.410156 505.273438 L 529.632812 505.273438 C 546.65625 505.273438 560.457031 491.453125 560.457031 474.40625 L 560.457031 371.507812 C 560.457031 354.460938 546.65625 340.636719 529.632812 340.636719 "/>
</g>
<g clip-path="url(#clip3)" clip-rule="nonzero">
<path style=" stroke:none;fill-rule:nonzero;fill:rgb(92.158508%,92.158508%,92.158508%);fill-opacity:1;" d="M 511.640625 327.097656 L 505.519531 327.097656 C 510.359375 310.925781 512.882812 294.164062 512.882812 277.25 C 512.882812 258.691406 509.878906 240.761719 504.378906 223.765625 C 511.675781 216.460938 513.988281 205.089844 509.296875 195.230469 C 472.832031 118.667969 389.441406 69.199219 296.855469 69.199219 C 204.199219 69.199219 120.792969 118.710938 84.359375 195.34375 C 79.667969 205.203125 81.992188 216.570312 89.292969 223.871094 C 83.816406 240.835938 80.824219 258.730469 80.824219 277.25 C 80.824219 294.261719 83.359375 310.988281 88.164062 327.097656 L 82.0625 327.097656 C 65.449219 327.097656 51.976562 340.585938 51.976562 357.214844 L 51.976562 457.609375 C 51.976562 474.242188 65.449219 487.726562 82.0625 487.726562 L 93.019531 487.726562 C 94.703125 506.429688 110.035156 519.753906 126.46875 517.554688 C 138.90625 515.984375 151.34375 514.410156 163.78125 512.835938 C 180.261719 510.636719 191.855469 495.515625 190.40625 479.015625 C 186.1875 431.375 186.1875 383.453125 190.40625 335.8125 C 191.851562 319.304688 180.261719 304.1875 163.78125 301.992188 C 151.34375 300.414062 138.90625 298.84375 126.46875 297.273438 C 117.90625 296.128906 109.664062 299.222656 103.46875 305.070312 C 101.789062 295.929688 100.878906 286.640625 100.878906 277.25 C 100.878906 261.289062 103.394531 245.847656 108 231.164062 C 116.996094 230.792969 125.492188 225.621094 129.632812 216.917969 C 157.800781 157.675781 223.441406 119.394531 296.855469 119.394531 C 370.222656 119.394531 435.84375 157.644531 464.035156 216.835938 C 468.179688 225.539062 476.683594 230.746094 485.6875 231.109375 C 490.304688 245.804688 492.828125 261.269531 492.828125 277.25 C 492.828125 286.703125 491.957031 296.011719 490.300781 305.136719 C 484.101562 299.25 475.832031 296.121094 467.234375 297.273438 C 454.796875 298.84375 442.359375 300.417969 429.921875 301.992188 C 413.445312 304.1875 401.851562 319.304688 403.300781 335.8125 C 407.515625 383.453125 407.515625 431.375 403.300781 479.015625 C 401.851562 495.519531 413.445312 510.636719 429.921875 512.835938 C 442.359375 514.410156 454.796875 515.984375 467.234375 517.554688 C 483.667969 519.753906 499.003906 506.429688 500.683594 487.726562 L 511.640625 487.726562 C 528.253906 487.726562 541.726562 474.242188 541.726562 457.613281 L 541.726562 357.214844 C 541.726562 340.585938 528.253906 327.097656 511.640625 327.097656 "/>
</g>
<g clip-path="url(#clip4)" clip-rule="nonzero">
<path style=" stroke:none;fill-rule:nonzero;fill:rgb(78.42865%,78.42865%,78.42865%);fill-opacity:1;" d="M 69.074219 93.96875 C 68.429688 93.96875 67.78125 94 67.140625 94.0625 C 66.496094 94.125 65.855469 94.222656 65.222656 94.347656 C 64.585938 94.472656 63.960938 94.628906 63.34375 94.816406 C 62.722656 95.007812 62.113281 95.222656 61.519531 95.472656 C 60.921875 95.71875 60.335938 95.996094 59.765625 96.300781 C 59.195312 96.605469 58.640625 96.9375 58.105469 97.296875 C 57.566406 97.652344 57.046875 98.039062 56.546875 98.449219 C 56.046875 98.859375 55.570312 99.292969 55.113281 99.75 C 54.65625 100.207031 54.21875 100.683594 53.808594 101.183594 C 53.398438 101.683594 53.015625 102.203125 52.65625 102.742188 C 52.296875 103.277344 51.964844 103.832031 51.660156 104.402344 C 51.355469 104.972656 51.078125 105.554688 50.832031 106.152344 C 50.582031 106.75 50.367188 107.359375 50.179688 107.976562 C 49.992188 108.59375 49.832031 109.21875 49.707031 109.855469 C 49.582031 110.488281 49.488281 111.128906 49.421875 111.769531 C 49.359375 112.414062 49.328125 113.058594 49.328125 113.703125 L 49.328125 468.976562 C 49.328125 469.621094 49.359375 470.265625 49.421875 470.910156 C 49.488281 471.554688 49.582031 472.191406 49.707031 472.824219 C 49.835938 473.460938 49.992188 474.085938 50.179688 474.703125 C 50.367188 475.324219 50.585938 475.929688 50.832031 476.527344 C 51.078125 477.125 51.355469 477.710938 51.660156 478.28125 C 51.964844 478.851562 52.296875 479.402344 52.65625 479.941406 C 53.015625 480.480469 53.402344 480.996094 53.8125 481.496094 C 54.222656 481.996094 54.65625 482.476562 55.113281 482.933594 C 55.570312 483.390625 56.050781 483.824219 56.550781 484.234375 C 57.050781 484.644531 57.566406 485.027344 58.105469 485.386719 C 58.644531 485.746094 59.195312 486.078125 59.765625 486.382812 C 60.335938 486.6875 60.921875 486.964844 61.519531 487.210938 C 62.117188 487.457031 62.722656 487.675781 63.34375 487.863281 C 63.960938 488.050781 64.589844 488.207031 65.222656 488.332031 C 65.855469 488.460938 66.496094 488.554688 67.140625 488.617188 C 67.78125 488.679688 68.429688 488.710938 69.074219 488.710938 L 266.539062 488.710938 C 277.695312 488.710938 286.285156 497.296875 286.285156 508.449219 C 286.292969 509.089844 286.332031 509.730469 286.402344 510.367188 C 286.476562 511.003906 286.578125 511.632812 286.710938 512.261719 C 286.84375 512.886719 287.007812 513.507812 287.199219 514.117188 C 287.390625 514.726562 287.613281 515.328125 287.867188 515.917969 C 288.117188 516.507812 288.398438 517.082031 288.703125 517.644531 C 289.011719 518.207031 289.347656 518.753906 289.707031 519.28125 C 290.066406 519.8125 290.453125 520.320312 290.863281 520.8125 C 291.273438 521.304688 291.707031 521.777344 292.164062 522.226562 C 292.621094 522.675781 293.097656 523.101562 293.597656 523.507812 C 294.09375 523.910156 294.609375 524.289062 295.144531 524.640625 C 295.679688 524.996094 296.230469 525.320312 296.796875 525.621094 C 297.363281 525.917969 297.945312 526.191406 298.539062 526.433594 C 299.128906 526.675781 299.734375 526.890625 300.347656 527.074219 C 300.960938 527.257812 301.582031 527.414062 302.210938 527.539062 C 302.839844 527.660156 303.472656 527.753906 304.113281 527.816406 C 304.75 527.878906 305.390625 527.910156 306.03125 527.910156 C 306.671875 527.910156 307.308594 527.878906 307.949219 527.816406 C 308.585938 527.753906 309.21875 527.660156 309.847656 527.539062 C 310.476562 527.414062 311.097656 527.257812 311.710938 527.074219 C 312.328125 526.890625 312.929688 526.675781 313.523438 526.433594 C 314.117188 526.191406 314.695312 525.917969 315.261719 525.621094 C 315.828125 525.320312 316.378906 524.996094 316.914062 524.640625 C 317.449219 524.289062 317.964844 523.910156 318.464844 523.507812 C 318.960938 523.101562 319.4375 522.675781 319.894531 522.226562 C 320.351562 521.777344 320.785156 521.304688 321.195312 520.8125 C 321.605469 520.320312 321.992188 519.8125 322.351562 519.28125 C 322.714844 518.753906 323.046875 518.207031 323.355469 517.644531 C 323.664062 517.082031 323.941406 516.507812 324.195312 515.917969 C 324.445312 515.328125 324.667969 514.726562 324.859375 514.117188 C 325.054688 513.507812 325.214844 512.886719 325.347656 512.261719 C 325.480469 511.632812 325.585938 511.003906 325.65625 510.367188 C 325.726562 509.730469 325.765625 509.089844 325.777344 508.449219 C 325.777344 497.296875 334.367188 488.710938 345.523438 488.710938 L 542.984375 488.710938 C 543.632812 488.710938 544.277344 488.679688 544.921875 488.617188 C 545.5625 488.554688 546.203125 488.457031 546.835938 488.332031 C 547.472656 488.207031 548.097656 488.050781 548.71875 487.863281 C 549.335938 487.675781 549.945312 487.457031 550.542969 487.210938 C 551.140625 486.960938 551.722656 486.6875 552.292969 486.378906 C 552.863281 486.074219 553.417969 485.742188 553.957031 485.386719 C 554.492188 485.027344 555.011719 484.640625 555.511719 484.230469 C 556.011719 483.820312 556.492188 483.386719 556.949219 482.929688 C 557.40625 482.472656 557.839844 481.996094 558.25 481.496094 C 558.660156 480.996094 559.042969 480.476562 559.402344 479.941406 C 559.761719 479.402344 560.09375 478.847656 560.398438 478.277344 C 560.703125 477.707031 560.980469 477.125 561.230469 476.527344 C 561.476562 475.929688 561.695312 475.324219 561.882812 474.703125 C 562.070312 474.085938 562.226562 473.460938 562.351562 472.824219 C 562.476562 472.191406 562.574219 471.554688 562.636719 470.910156 C 562.699219 470.265625 562.730469 469.621094 562.730469 468.976562 L 562.730469 113.703125 C 562.730469 113.058594 562.699219 112.414062 562.636719 111.769531 C 562.574219 111.125 562.476562 110.488281 562.351562 109.855469 C 562.226562 109.21875 562.066406 108.59375 561.878906 107.976562 C 561.691406 107.355469 561.476562 106.75 561.226562 106.152344 C 560.980469 105.554688 560.703125 104.96875 560.398438 104.398438 C 560.09375 103.832031 559.761719 103.277344 559.402344 102.738281 C 559.042969 102.203125 558.65625 101.683594 558.246094 101.183594 C 557.835938 100.683594 557.402344 100.207031 556.945312 99.75 C 556.488281 99.292969 556.011719 98.859375 555.511719 98.449219 C 555.011719 98.039062 554.492188 97.652344 553.953125 97.292969 C 553.417969 96.933594 552.863281 96.601562 552.292969 96.296875 C 551.722656 95.992188 551.136719 95.71875 550.539062 95.46875 C 549.945312 95.222656 549.335938 95.003906 548.714844 94.816406 C 548.097656 94.628906 547.472656 94.472656 546.835938 94.347656 C 546.203125 94.21875 545.5625 94.125 544.921875 94.0625 C 544.277344 94 543.632812 93.96875 542.984375 93.96875 L 365.269531 93.96875 C 341.628906 93.96875 320.546875 104.746094 306.03125 121.375 C 291.511719 104.746094 270.429688 93.96875 246.792969 93.96875 Z M 88.820312 133.441406 L 246.792969 133.441406 C 268.839844 133.441406 286.285156 150.875 286.285156 172.917969 L 286.285156 457.449219 C 279.53125 454.746094 274.207031 449.238281 266.539062 449.238281 L 88.820312 449.238281 Z M 365.269531 133.441406 L 523.238281 133.441406 L 523.238281 449.238281 L 345.523438 449.238281 C 337.855469 449.238281 332.53125 454.746094 325.777344 457.449219 L 325.777344 172.917969 C 325.777344 150.875 343.21875 133.441406 365.269531 133.441406 Z M 365.269531 133.441406 "/>
</g>
<g clip-path="url(#clip5)" clip-rule="nonzero">
<path style=" stroke:none;fill-rule:nonzero;fill:rgb(100%,100%,100%);fill-opacity:1;" d="M 56.9375 71.808594 C 56.300781 71.808594 55.664062 71.839844 55.03125 71.902344 C 54.394531 71.964844 53.765625 72.058594 53.144531 72.183594 C 52.519531 72.308594 51.902344 72.460938 51.292969 72.648438 C 50.683594 72.832031 50.082031 73.046875 49.496094 73.289062 C 48.90625 73.535156 48.332031 73.804688 47.769531 74.105469 C 47.210938 74.40625 46.664062 74.734375 46.132812 75.085938 C 45.605469 75.441406 45.09375 75.820312 44.601562 76.222656 C 44.109375 76.628906 43.636719 77.054688 43.1875 77.507812 C 42.738281 77.957031 42.308594 78.429688 41.90625 78.921875 C 41.503906 79.414062 41.125 79.925781 40.769531 80.453125 C 40.417969 80.984375 40.089844 81.527344 39.789062 82.089844 C 39.488281 82.652344 39.21875 83.226562 38.972656 83.816406 C 38.730469 84.402344 38.515625 85.003906 38.332031 85.613281 C 38.144531 86.222656 37.992188 86.839844 37.867188 87.464844 C 37.742188 88.089844 37.648438 88.71875 37.585938 89.351562 C 37.523438 89.984375 37.492188 90.621094 37.492188 91.257812 L 37.492188 441.351562 C 37.492188 441.988281 37.523438 442.625 37.585938 443.257812 C 37.648438 443.890625 37.742188 444.523438 37.867188 445.144531 C 37.992188 445.769531 38.148438 446.386719 38.332031 446.996094 C 38.515625 447.609375 38.730469 448.207031 38.976562 448.796875 C 39.21875 449.382812 39.492188 449.957031 39.789062 450.519531 C 40.089844 451.082031 40.417969 451.628906 40.773438 452.15625 C 41.125 452.6875 41.503906 453.199219 41.90625 453.691406 C 42.3125 454.183594 42.738281 454.65625 43.191406 455.105469 C 43.640625 455.554688 44.109375 455.984375 44.601562 456.386719 C 45.09375 456.789062 45.605469 457.167969 46.136719 457.523438 C 46.664062 457.878906 47.210938 458.203125 47.773438 458.503906 C 48.332031 458.804688 48.910156 459.078125 49.496094 459.320312 C 50.085938 459.566406 50.683594 459.777344 51.292969 459.964844 C 51.902344 460.148438 52.519531 460.304688 53.144531 460.425781 C 53.769531 460.550781 54.398438 460.644531 55.03125 460.707031 C 55.664062 460.769531 56.300781 460.800781 56.9375 460.800781 L 251.359375 460.800781 C 262.34375 460.800781 270.800781 469.261719 270.800781 480.25 C 270.8125 480.882812 270.851562 481.511719 270.921875 482.140625 C 270.992188 482.765625 271.089844 483.390625 271.222656 484.007812 C 271.351562 484.625 271.511719 485.234375 271.703125 485.835938 C 271.894531 486.4375 272.113281 487.027344 272.359375 487.609375 C 272.609375 488.191406 272.882812 488.757812 273.1875 489.3125 C 273.488281 489.867188 273.816406 490.402344 274.171875 490.925781 C 274.527344 491.445312 274.90625 491.949219 275.3125 492.433594 C 275.714844 492.917969 276.144531 493.382812 276.59375 493.828125 C 277.042969 494.269531 277.511719 494.691406 278.003906 495.089844 C 278.492188 495.484375 279 495.859375 279.527344 496.207031 C 280.054688 496.554688 280.597656 496.875 281.152344 497.171875 C 281.710938 497.464844 282.28125 497.734375 282.867188 497.972656 C 283.449219 498.210938 284.042969 498.421875 284.648438 498.605469 C 285.253906 498.785156 285.867188 498.9375 286.484375 499.058594 C 287.105469 499.183594 287.726562 499.273438 288.355469 499.335938 C 288.984375 499.398438 289.613281 499.425781 290.242188 499.425781 C 290.875 499.425781 291.503906 499.398438 292.132812 499.335938 C 292.761719 499.273438 293.382812 499.183594 294.003906 499.058594 C 294.621094 498.9375 295.234375 498.785156 295.839844 498.605469 C 296.445312 498.421875 297.039062 498.210938 297.621094 497.972656 C 298.207031 497.734375 298.777344 497.464844 299.335938 497.171875 C 299.890625 496.875 300.433594 496.554688 300.960938 496.207031 C 301.488281 495.859375 301.996094 495.484375 302.484375 495.089844 C 302.976562 494.691406 303.445312 494.269531 303.894531 493.828125 C 304.34375 493.382812 304.773438 492.917969 305.175781 492.433594 C 305.582031 491.949219 305.960938 491.445312 306.316406 490.925781 C 306.671875 490.402344 307 489.867188 307.300781 489.3125 C 307.605469 488.757812 307.878906 488.191406 308.128906 487.609375 C 308.375 487.027344 308.59375 486.4375 308.785156 485.835938 C 308.976562 485.234375 309.136719 484.625 309.265625 484.007812 C 309.398438 483.390625 309.496094 482.765625 309.566406 482.140625 C 309.636719 481.511719 309.675781 480.882812 309.6875 480.25 C 309.6875 469.261719 318.144531 460.800781 329.128906 460.800781 L 523.550781 460.800781 C 524.1875 460.800781 524.824219 460.769531 525.457031 460.707031 C 526.089844 460.644531 526.722656 460.550781 527.34375 460.425781 C 527.96875 460.300781 528.585938 460.148438 529.195312 459.964844 C 529.804688 459.777344 530.40625 459.5625 530.992188 459.320312 C 531.582031 459.074219 532.15625 458.804688 532.71875 458.503906 C 533.277344 458.203125 533.824219 457.875 534.355469 457.523438 C 534.882812 457.167969 535.394531 456.789062 535.886719 456.386719 C 536.378906 455.980469 536.851562 455.554688 537.300781 455.101562 C 537.75 454.652344 538.175781 454.179688 538.582031 453.6875 C 538.984375 453.195312 539.363281 452.6875 539.71875 452.15625 C 540.070312 451.625 540.398438 451.082031 540.699219 450.519531 C 541 449.957031 541.269531 449.382812 541.515625 448.792969 C 541.757812 448.207031 541.972656 447.605469 542.15625 446.996094 C 542.34375 446.386719 542.496094 445.769531 542.621094 445.144531 C 542.746094 444.519531 542.839844 443.890625 542.902344 443.257812 C 542.964844 442.625 542.996094 441.988281 542.996094 441.351562 L 542.996094 91.257812 C 542.996094 90.621094 542.964844 89.984375 542.902344 89.351562 C 542.839844 88.71875 542.746094 88.089844 542.621094 87.464844 C 542.496094 86.839844 542.339844 86.222656 542.15625 85.613281 C 541.972656 85.003906 541.757812 84.402344 541.511719 83.816406 C 541.269531 83.226562 540.996094 82.652344 540.699219 82.089844 C 540.398438 81.527344 540.070312 80.980469 539.714844 80.453125 C 539.363281 79.921875 538.984375 79.410156 538.578125 78.917969 C 538.175781 78.425781 537.75 77.957031 537.296875 77.503906 C 536.847656 77.054688 536.378906 76.628906 535.886719 76.222656 C 535.394531 75.820312 534.882812 75.441406 534.351562 75.085938 C 533.824219 74.730469 533.277344 74.40625 532.714844 74.105469 C 532.15625 73.804688 531.578125 73.53125 530.992188 73.289062 C 530.402344 73.046875 529.804688 72.832031 529.195312 72.644531 C 528.585938 72.460938 527.96875 72.304688 527.34375 72.183594 C 526.71875 72.058594 526.089844 71.964844 525.457031 71.902344 C 524.824219 71.839844 524.1875 71.808594 523.550781 71.808594 L 348.570312 71.808594 C 325.296875 71.808594 304.539062 82.433594 290.242188 98.816406 C 275.949219 82.433594 255.191406 71.808594 231.917969 71.808594 Z M 76.378906 110.707031 L 231.917969 110.707031 C 253.628906 110.707031 270.800781 127.886719 270.800781 149.605469 L 270.800781 429.992188 C 264.152344 427.328125 258.910156 421.902344 251.359375 421.902344 L 76.378906 421.902344 Z M 348.570312 110.707031 L 504.109375 110.707031 L 504.109375 421.902344 L 329.128906 421.902344 C 321.578125 421.902344 316.335938 427.328125 309.6875 429.992188 L 309.6875 149.605469 C 309.6875 127.886719 326.859375 110.707031 348.570312 110.707031 Z M 348.570312 110.707031 "/>
</g>
<g clip-path="url(#clip6)" clip-rule="nonzero">
<path style=" stroke:none;fill-rule:nonzero;fill:rgb(92.158508%,92.158508%,92.158508%);fill-opacity:1;" d="M 64.054688 88.429688 C 63.417969 88.429688 62.78125 88.460938 62.148438 88.523438 C 61.515625 88.585938 60.886719 88.679688 60.261719 88.804688 C 59.636719 88.929688 59.019531 89.085938 58.410156 89.269531 C 57.800781 89.453125 57.203125 89.667969 56.613281 89.914062 C 56.027344 90.15625 55.449219 90.429688 54.890625 90.730469 C 54.328125 91.027344 53.78125 91.355469 53.253906 91.710938 C 52.722656 92.0625 52.210938 92.441406 51.71875 92.847656 C 51.226562 93.25 50.757812 93.679688 50.304688 94.128906 C 49.855469 94.578125 49.429688 95.050781 49.023438 95.542969 C 48.621094 96.035156 48.242188 96.546875 47.886719 97.074219 C 47.535156 97.605469 47.207031 98.152344 46.90625 98.714844 C 46.605469 99.273438 46.335938 99.851562 46.09375 100.4375 C 45.847656 101.027344 45.632812 101.625 45.449219 102.234375 C 45.265625 102.84375 45.109375 103.460938 44.984375 104.085938 C 44.859375 104.710938 44.769531 105.339844 44.707031 105.972656 C 44.644531 106.609375 44.613281 107.242188 44.613281 107.878906 L 44.613281 457.972656 C 44.613281 458.609375 44.644531 459.246094 44.707031 459.878906 C 44.769531 460.515625 44.863281 461.144531 44.984375 461.769531 C 45.109375 462.394531 45.265625 463.011719 45.449219 463.621094 C 45.636719 464.230469 45.847656 464.828125 46.09375 465.417969 C 46.335938 466.007812 46.609375 466.582031 46.910156 467.144531 C 47.210938 467.703125 47.535156 468.25 47.890625 468.78125 C 48.242188 469.308594 48.621094 469.820312 49.027344 470.3125 C 49.429688 470.804688 49.859375 471.277344 50.308594 471.726562 C 50.757812 472.179688 51.230469 472.605469 51.722656 473.007812 C 52.214844 473.414062 52.722656 473.792969 53.253906 474.144531 C 53.785156 474.5 54.328125 474.828125 54.890625 475.128906 C 55.453125 475.425781 56.027344 475.699219 56.613281 475.945312 C 57.203125 476.1875 57.800781 476.402344 58.410156 476.585938 C 59.019531 476.769531 59.636719 476.925781 60.261719 477.050781 C 60.886719 477.175781 61.515625 477.269531 62.148438 477.332031 C 62.78125 477.394531 63.417969 477.425781 64.054688 477.425781 L 258.476562 477.425781 C 269.464844 477.425781 277.921875 485.882812 277.921875 496.875 C 277.929688 497.503906 277.96875 498.132812 278.039062 498.761719 C 278.109375 499.390625 278.210938 500.011719 278.339844 500.628906 C 278.472656 501.246094 278.632812 501.855469 278.820312 502.457031 C 279.011719 503.058594 279.230469 503.652344 279.476562 504.234375 C 279.726562 504.8125 280 505.378906 280.304688 505.933594 C 280.605469 506.488281 280.9375 507.027344 281.292969 507.546875 C 281.648438 508.070312 282.027344 508.574219 282.429688 509.058594 C 282.835938 509.542969 283.261719 510.007812 283.710938 510.449219 C 284.160156 510.894531 284.628906 511.3125 285.121094 511.710938 C 285.609375 512.109375 286.121094 512.480469 286.644531 512.828125 C 287.171875 513.175781 287.714844 513.5 288.273438 513.792969 C 288.832031 514.089844 289.402344 514.355469 289.984375 514.59375 C 290.570312 514.835938 291.164062 515.046875 291.765625 515.226562 C 292.371094 515.410156 292.984375 515.5625 293.601562 515.683594 C 294.222656 515.804688 294.84375 515.898438 295.472656 515.957031 C 296.101562 516.019531 296.730469 516.050781 297.363281 516.050781 C 297.992188 516.050781 298.625 516.019531 299.25 515.957031 C 299.878906 515.898438 300.503906 515.804688 301.121094 515.683594 C 301.742188 515.5625 302.351562 515.410156 302.957031 515.226562 C 303.5625 515.046875 304.15625 514.835938 304.738281 514.59375 C 305.324219 514.355469 305.894531 514.089844 306.453125 513.792969 C 307.011719 513.5 307.550781 513.175781 308.078125 512.828125 C 308.605469 512.480469 309.113281 512.109375 309.605469 511.710938 C 310.09375 511.3125 310.566406 510.894531 311.015625 510.449219 C 311.464844 510.007812 311.890625 509.542969 312.292969 509.058594 C 312.699219 508.574219 313.078125 508.070312 313.433594 507.546875 C 313.789062 507.027344 314.117188 506.488281 314.421875 505.933594 C 314.722656 505.378906 315 504.8125 315.246094 504.230469 C 315.496094 503.652344 315.714844 503.058594 315.902344 502.457031 C 316.09375 501.855469 316.253906 501.246094 316.382812 500.628906 C 316.515625 500.011719 316.617188 499.390625 316.6875 498.761719 C 316.757812 498.132812 316.796875 497.503906 316.804688 496.875 C 316.804688 485.882812 325.261719 477.425781 336.246094 477.425781 L 530.671875 477.425781 C 531.308594 477.421875 531.941406 477.390625 532.578125 477.328125 C 533.210938 477.265625 533.839844 477.175781 534.464844 477.050781 C 535.089844 476.925781 535.707031 476.769531 536.316406 476.585938 C 536.925781 476.402344 537.523438 476.1875 538.109375 475.941406 C 538.699219 475.699219 539.273438 475.425781 539.835938 475.125 C 540.398438 474.824219 540.941406 474.5 541.472656 474.144531 C 542 473.789062 542.511719 473.410156 543.003906 473.007812 C 543.496094 472.605469 543.96875 472.175781 544.417969 471.726562 C 544.867188 471.277344 545.296875 470.804688 545.699219 470.3125 C 546.105469 469.820312 546.484375 469.308594 546.835938 468.777344 C 547.191406 468.25 547.515625 467.703125 547.816406 467.140625 C 548.117188 466.578125 548.390625 466.003906 548.632812 465.417969 C 548.875 464.828125 549.089844 464.230469 549.277344 463.621094 C 549.460938 463.011719 549.613281 462.394531 549.738281 461.769531 C 549.863281 461.144531 549.957031 460.515625 550.019531 459.878906 C 550.082031 459.246094 550.113281 458.609375 550.113281 457.972656 L 550.113281 107.878906 C 550.113281 107.242188 550.082031 106.609375 550.019531 105.972656 C 549.957031 105.339844 549.863281 104.710938 549.738281 104.085938 C 549.613281 103.460938 549.460938 102.84375 549.273438 102.234375 C 549.089844 101.625 548.875 101.027344 548.632812 100.4375 C 548.386719 99.847656 548.117188 99.273438 547.816406 98.710938 C 547.515625 98.148438 547.1875 97.605469 546.835938 97.074219 C 546.480469 96.546875 546.101562 96.035156 545.699219 95.542969 C 545.292969 95.050781 544.867188 94.578125 544.417969 94.128906 C 543.96875 93.675781 543.496094 93.25 543.003906 92.84375 C 542.511719 92.441406 542 92.0625 541.472656 91.707031 C 540.941406 91.355469 540.394531 91.027344 539.835938 90.726562 C 539.273438 90.425781 538.699219 90.15625 538.109375 89.910156 C 537.523438 89.667969 536.921875 89.453125 536.3125 89.269531 C 535.703125 89.082031 535.085938 88.929688 534.464844 88.804688 C 533.839844 88.679688 533.210938 88.585938 532.574219 88.523438 C 531.941406 88.460938 531.308594 88.429688 530.671875 88.429688 L 355.691406 88.429688 C 332.414062 88.429688 311.65625 99.054688 297.363281 115.441406 C 283.070312 99.054688 262.3125 88.429688 239.035156 88.429688 Z M 83.496094 127.332031 L 239.035156 127.332031 C 260.746094 127.332031 277.921875 144.511719 277.921875 166.230469 L 277.921875 446.617188 C 271.269531 443.949219 266.027344 438.523438 258.476562 438.523438 L 83.496094 438.523438 Z M 355.691406 127.332031 L 511.226562 127.332031 L 511.226562 438.523438 L 336.246094 438.523438 C 328.695312 438.523438 323.453125 443.949219 316.804688 446.617188 L 316.804688 166.230469 C 316.804688 144.511719 333.980469 127.332031 355.691406 127.332031 Z M 355.691406 127.332031 "/>
</g>
</g>
</svg>
